<svg width="50" height="44" viewBox="0 0 50 44" fill="none" xmlns="http://www.w3.org/2000/svg">
<path fill-rule="evenodd" clip-rule="evenodd" d="M5 0C2.23858 0 0 2.23858 0 5V13.4999C0.0590598 13.4999 0.119121 13.5104 0.177609 13.5326L23.4015 22.3577C24.4313 22.749 25.5687 22.749 26.5985 22.3577L49.8224 13.5326C49.8809 13.5104 49.9409 13.4999 50 13.4999V5C50 2.23858 47.7614 0 45 0H5ZM50 14.5349L26.9537 23.2925C25.6951 23.7707 24.3049 23.7707 23.0463 23.2925L0 14.5349V39C0 41.7614 2.23858 44 5 44H45C47.7614 44 50 41.7614 50 39V14.5349Z" fill="#C4C4C4"/>
</svg>
