<svg width="30" height="50" viewBox="0 0 30 50" fill="none" xmlns="http://www.w3.org/2000/svg">
<path fill-rule="evenodd" clip-rule="evenodd" d="M0 5C0 2.23858 2.23859 0 5 0H25C27.7614 0 30 2.23858 30 5V45C30 47.7614 27.7614 50 25 50H5C2.23859 50 0 47.7614 0 45V5ZM2 5C2 3.89543 2.89545 3 4 3H26C27.1046 3 28 3.89543 28 5V39C28 40.1046 27.1046 41 26 41H4C2.89545 41 2 40.1046 2 39V5ZM15 49C16.6569 49 18 47.6569 18 46C18 44.3431 16.6569 43 15 43C13.3431 43 12 44.3431 12 46C12 47.6569 13.3431 49 15 49Z" fill="#C4C4C4"/>
</svg>
